<svg xmlns="http://www.w3.org/2000/svg" viewBox="0 0 32 32">
  <defs>
    <linearGradient id="outer" x1="0%" y1="0%" x2="100%" y2="100%">
      <stop offset="0%" style="stop-color:#c0c0c0" />
      <stop offset="100%" style="stop-color:#808080" />
    </linearGradient>
    <linearGradient id="inner" x1="0%" y1="0%" x2="0%" y2="100%">
      <stop offset="0%" style="stop-color:#1a2744" />
      <stop offset="100%" style="stop-color:#0f172a" />
    </linearGradient>
  </defs>
  <!-- Outer silver shield -->
  <path d="M16 1 L30 6 L30 17 C30 25 23 30 16 32 C9 30 2 25 2 17 L2 6 Z" fill="url(#outer)" />
  <!-- Inner navy shield -->
  <path d="M16 4 L27 8 L27 17 C27 23 21 27 16 29 C11 27 5 23 5 17 L5 8 Z" fill="url(#inner)" />
  <!-- 360 arc -->
  <circle cx="16" cy="16" r="6" fill="none" stroke="#84cc16" stroke-width="1.5" stroke-dasharray="30 8" transform="rotate(-90 16 16)" />
  <!-- Checkmark -->
  <path d="M12 16 L14 18 L20 12" fill="none" stroke="#84cc16" stroke-width="2" stroke-linecap="round" stroke-linejoin="round" />
</svg>