<svg xmlns="http://www.w3.org/2000/svg" viewBox="0 0 32 32">
  <defs>
    <linearGradient id="outer" x1="0%" y1="0%" x2="100%" y2="100%">
      <stop offset="0%" style="stop-color:#e0e0e0" />
      <stop offset="50%" style="stop-color:#a0a0a0" />
      <stop offset="100%" style="stop-color:#c0c0c0" />
    </linearGradient>
    <linearGradient id="lime" x1="0%" y1="0%" x2="0%" y2="100%">
      <stop offset="0%" style="stop-color:#a3e635" />
      <stop offset="100%" style="stop-color:#65a30d" />
    </linearGradient>
    <linearGradient id="navy" x1="0%" y1="0%" x2="0%" y2="100%">
      <stop offset="0%" style="stop-color:#1a2744" />
      <stop offset="100%" style="stop-color:#0f172a" />
    </linearGradient>
  </defs>
  <!-- Outer silver shield -->
  <path d="M16 1 L30 6 L30 18 C30 26 23 30 16 32 C9 30 2 26 2 18 L2 6 Z" fill="url(#outer)" />
  <!-- Middle lime shield -->
  <path d="M16 3 L28 7 L28 18 C28 24 22 28 16 30 C10 28 4 24 4 18 L4 7 Z" fill="url(#lime)" />
  <!-- Inner navy shield -->
  <path d="M16 5 L26 9 L26 18 C26 23 20 26 16 28 C12 26 6 23 6 18 L6 9 Z" fill="url(#navy)" />
  <!-- Simplified gear -->
  <circle cx="16" cy="16" r="5" fill="none" stroke="#84cc16" stroke-width="1.5" />
  <circle cx="16" cy="16" r="2" fill="#84cc16" />
  <!-- Gear teeth hints -->
  <g stroke="#84cc16" stroke-width="1.5" stroke-linecap="round">
    <line x1="16" y1="10" x2="16" y2="12" />
    <line x1="16" y1="20" x2="16" y2="22" />
    <line x1="10" y1="16" x2="12" y2="16" />
    <line x1="20" y1="16" x2="22" y2="16" />
  </g>
</svg>